<svg height="512" viewBox="0 0 512 512" width="512" xmlns="http://www.w3.org/2000/svg"><g id="filled_outline" data-name="filled outline"><path d="m256 56-128 200a136.565 136.565 0 0 1 40 96.568v87.432h176v-87.432a136.565 136.565 0 0 1 40-96.568zm0 232a32 32 0 1 1 32-32 32 32 0 0 1 -32 32z" fill="#ccc"/><g fill="#fdb62f"><path d="m168 496v-88h176v88"/><path d="m240 24h32v32h-32z"/><path d="m24 248h32v32h-32z"/><path d="m456 248h32v32h-32z"/></g><path d="m350.351 203.424a398.392 398.392 0 0 1 -105.171 236.576h98.82v-87.432a136.565 136.565 0 0 1 40-96.568z" fill="#b3b3b3"/><path d="m180.828 496h163.172v-88h-71.995a402.215 402.215 0 0 1 -91.177 88z" fill="#f29706"/><path d="m152 392h208v64h-208z" fill="#0071bc"/><path d="m283.433 392a401.991 401.991 0 0 1 -54 64h130.567v-64z" fill="#005a97"/><path d="m488 240h-8v-112h-16v44.73a224.7 224.7 0 0 0 -124.69-124.73h44.69v-16h-104v-8a8 8 0 0 0 -8-8h-32a8 8 0 0 0 -8 8v8h-104v16h44.69a224.7 224.7 0 0 0 -124.69 124.73v-44.73h-16v112h-8a8 8 0 0 0 -8 8v32a8 8 0 0 0 8 8h32a8 8 0 0 0 8-8v-32a8 8 0 0 0 -8-8h-7.38a208.009 208.009 0 0 1 183.38-190.62v6.62a8 8 0 0 0 8 8h1.382l-120.12 187.688a8 8 0 0 0 1.081 9.969 127.724 127.724 0 0 1 37.657 90.911v31.432h-8a8 8 0 0 0 -8 8v64a8 8 0 0 0 8 8h8v32h16v-32h160v32h16v-32h8a8 8 0 0 0 8-8v-64a8 8 0 0 0 -8-8h-8v-31.432a127.724 127.724 0 0 1 37.657-90.911 8 8 0 0 0 1.081-9.969l-120.12-187.688h1.382a8 8 0 0 0 8-8v-6.62a208.009 208.009 0 0 1 183.38 190.62h-7.38a8 8 0 0 0 -8 8v32a8 8 0 0 0 8 8h32a8 8 0 0 0 8-8v-32a8 8 0 0 0 -8-8zm-440 32h-16v-16h16zm200-240h16v16h-16zm8 200a24 24 0 1 1 -24 24 24.028 24.028 0 0 1 24-24zm96 216h-192v-48h192zm-16-95.432v31.432h-160v-31.432a143.531 143.531 0 0 0 -37.871-97.553l109.871-171.674v133.464a40 40 0 1 0 16 0v-133.464l109.871 171.674a143.531 143.531 0 0 0 -37.871 97.553zm144-80.568h-16v-16h16z"/></g></svg>